<mxfile host="65bd71144e">
    <diagram name="Page-1" id="Hl0nem4dIOny1nYZZMhr">
        <mxGraphModel dx="1831" dy="764" grid="1" gridSize="10" guides="1" tooltips="1" connect="1" arrows="1" fold="1" page="1" pageScale="1" pageWidth="850" pageHeight="1100" math="0" shadow="0">
            <root>
                <mxCell id="0"/>
                <mxCell id="1" parent="0"/>
                <mxCell id="R1y9XJ3Q8lprdGOqnd8L-1" value="" style="whiteSpace=wrap;html=1;aspect=fixed;" parent="1" vertex="1">
                    <mxGeometry x="90" y="150" width="660" height="660" as="geometry"/>
                </mxCell>
                <mxCell id="R1y9XJ3Q8lprdGOqnd8L-10" value="Admin" style="shape=umlActor;html=1;verticalLabelPosition=bottom;verticalAlign=top;align=center;" parent="1" vertex="1">
                    <mxGeometry x="-110" y="380" width="70" height="140" as="geometry"/>
                </mxCell>
                <mxCell id="R1y9XJ3Q8lprdGOqnd8L-11" value="&lt;span style=&quot;font-weight: normal;&quot;&gt;Authentication&lt;/span&gt;" style="shape=ellipse;html=1;strokeWidth=1;fontStyle=1;whiteSpace=wrap;align=center;perimeter=ellipsePerimeter;" parent="1" vertex="1">
                    <mxGeometry x="610" y="390" width="120" height="60" as="geometry"/>
                </mxCell>
                <mxCell id="R1y9XJ3Q8lprdGOqnd8L-12" value="&lt;span style=&quot;font-weight: normal;&quot;&gt;Manage users&lt;/span&gt;" style="shape=ellipse;html=1;strokeWidth=1;fontStyle=1;whiteSpace=wrap;align=center;perimeter=ellipsePerimeter;" parent="1" vertex="1">
                    <mxGeometry x="160" y="470" width="120" height="60" as="geometry"/>
                </mxCell>
                <mxCell id="R1y9XJ3Q8lprdGOqnd8L-13" value="&lt;span style=&quot;font-weight: normal;&quot;&gt;View sales reports&lt;/span&gt;" style="shape=ellipse;html=1;strokeWidth=1;fontStyle=1;whiteSpace=wrap;align=center;perimeter=ellipsePerimeter;" parent="1" vertex="1">
                    <mxGeometry x="160" y="580" width="120" height="60" as="geometry"/>
                </mxCell>
                <mxCell id="R1y9XJ3Q8lprdGOqnd8L-14" value="&lt;span style=&quot;font-weight: normal;&quot;&gt;Oversee payment Processing&lt;/span&gt;" style="shape=ellipse;html=1;strokeWidth=1;fontStyle=1;whiteSpace=wrap;align=center;perimeter=ellipsePerimeter;" parent="1" vertex="1">
                    <mxGeometry x="145" y="700" width="150" height="70" as="geometry"/>
                </mxCell>
                <mxCell id="R1y9XJ3Q8lprdGOqnd8L-22" value="&amp;lt;&amp;lt;include&amp;gt;&amp;gt;" style="edgeStyle=none;html=1;startArrow=open;endArrow=none;startSize=12;verticalAlign=bottom;dashed=1;labelBackgroundColor=none;rounded=0;exitX=0.008;exitY=0.617;exitDx=0;exitDy=0;exitPerimeter=0;" parent="1" source="R1y9XJ3Q8lprdGOqnd8L-11" edge="1">
                    <mxGeometry width="160" relative="1" as="geometry">
                        <mxPoint x="410" y="480" as="sourcePoint"/>
                        <mxPoint x="280" y="489" as="targetPoint"/>
                    </mxGeometry>
                </mxCell>
                <mxCell id="R1y9XJ3Q8lprdGOqnd8L-23" value="&amp;lt;&amp;lt;include&amp;gt;&amp;gt;" style="edgeStyle=none;html=1;startArrow=open;endArrow=none;startSize=12;verticalAlign=bottom;dashed=1;labelBackgroundColor=none;rounded=0;entryX=1;entryY=0.5;entryDx=0;entryDy=0;exitX=0.225;exitY=0.933;exitDx=0;exitDy=0;exitPerimeter=0;" parent="1" source="R1y9XJ3Q8lprdGOqnd8L-11" target="R1y9XJ3Q8lprdGOqnd8L-14" edge="1">
                    <mxGeometry x="0.0006" width="160" relative="1" as="geometry">
                        <mxPoint x="390" y="650" as="sourcePoint"/>
                        <mxPoint x="540" y="480" as="targetPoint"/>
                        <mxPoint as="offset"/>
                    </mxGeometry>
                </mxCell>
                <mxCell id="R1y9XJ3Q8lprdGOqnd8L-24" value="&amp;lt;&amp;lt;include&amp;gt;&amp;gt;" style="edgeStyle=none;html=1;startArrow=open;endArrow=none;startSize=12;verticalAlign=bottom;dashed=1;labelBackgroundColor=none;rounded=0;entryX=1.008;entryY=0.35;entryDx=0;entryDy=0;exitX=0.083;exitY=0.7;exitDx=0;exitDy=0;exitPerimeter=0;entryPerimeter=0;" parent="1" source="R1y9XJ3Q8lprdGOqnd8L-11" target="R1y9XJ3Q8lprdGOqnd8L-13" edge="1">
                    <mxGeometry width="160" relative="1" as="geometry">
                        <mxPoint x="290" y="610" as="sourcePoint"/>
                        <mxPoint x="530" y="480" as="targetPoint"/>
                    </mxGeometry>
                </mxCell>
                <mxCell id="R1y9XJ3Q8lprdGOqnd8L-25" value="" style="edgeStyle=none;html=1;endArrow=none;verticalAlign=bottom;rounded=0;entryX=0;entryY=0.5;entryDx=0;entryDy=0;" parent="1" source="R1y9XJ3Q8lprdGOqnd8L-10" target="R1y9XJ3Q8lprdGOqnd8L-12" edge="1">
                    <mxGeometry width="160" relative="1" as="geometry">
                        <mxPoint x="45" y="400.00494845360834" as="sourcePoint"/>
                        <mxPoint x="165" y="407.4276288659793" as="targetPoint"/>
                    </mxGeometry>
                </mxCell>
                <mxCell id="R1y9XJ3Q8lprdGOqnd8L-26" value="" style="edgeStyle=none;html=1;endArrow=none;verticalAlign=bottom;rounded=0;entryX=0;entryY=0.5;entryDx=0;entryDy=0;" parent="1" source="R1y9XJ3Q8lprdGOqnd8L-10" target="R1y9XJ3Q8lprdGOqnd8L-13" edge="1">
                    <mxGeometry width="160" relative="1" as="geometry">
                        <mxPoint x="-40" y="450" as="sourcePoint"/>
                        <mxPoint x="120" y="450" as="targetPoint"/>
                    </mxGeometry>
                </mxCell>
                <mxCell id="R1y9XJ3Q8lprdGOqnd8L-27" value="" style="edgeStyle=none;html=1;endArrow=none;verticalAlign=bottom;rounded=0;entryX=0;entryY=0.5;entryDx=0;entryDy=0;" parent="1" source="R1y9XJ3Q8lprdGOqnd8L-10" target="R1y9XJ3Q8lprdGOqnd8L-14" edge="1">
                    <mxGeometry width="160" relative="1" as="geometry">
                        <mxPoint x="-40" y="470" as="sourcePoint"/>
                        <mxPoint x="120" y="470" as="targetPoint"/>
                    </mxGeometry>
                </mxCell>
                <mxCell id="R1y9XJ3Q8lprdGOqnd8L-28" value="&lt;font style=&quot;font-size: 18px;&quot;&gt;&lt;b&gt;Admin use case diagram&lt;/b&gt;&lt;/font&gt;" style="text;html=1;align=center;verticalAlign=middle;whiteSpace=wrap;rounded=0;" parent="1" vertex="1">
                    <mxGeometry x="292.5" y="170" width="235" height="50" as="geometry"/>
                </mxCell>
                <mxCell id="R1y9XJ3Q8lprdGOqnd8L-29" value="&lt;span style=&quot;font-weight: normal;&quot;&gt;Manage cars listing&amp;nbsp;&lt;/span&gt;" style="shape=ellipse;html=1;strokeWidth=1;fontStyle=1;whiteSpace=wrap;align=center;perimeter=ellipsePerimeter;" parent="1" vertex="1">
                    <mxGeometry x="157.5" y="380" width="135" height="60" as="geometry"/>
                </mxCell>
                <mxCell id="R1y9XJ3Q8lprdGOqnd8L-30" value="&amp;lt;&amp;lt;include&lt;span style=&quot;background-color: transparent;&quot;&gt;&amp;gt;&amp;gt;&lt;/span&gt;" style="edgeStyle=none;html=1;startArrow=open;endArrow=none;startSize=12;verticalAlign=bottom;dashed=1;labelBackgroundColor=none;rounded=0;entryX=1.019;entryY=0.4;entryDx=0;entryDy=0;entryPerimeter=0;exitX=0.1;exitY=0.133;exitDx=0;exitDy=0;exitPerimeter=0;" parent="1" source="R1y9XJ3Q8lprdGOqnd8L-11" target="R1y9XJ3Q8lprdGOqnd8L-29" edge="1">
                    <mxGeometry x="-0.003" width="160" relative="1" as="geometry">
                        <mxPoint x="450" y="340" as="sourcePoint"/>
                        <mxPoint x="610" y="340" as="targetPoint"/>
                        <mxPoint as="offset"/>
                    </mxGeometry>
                </mxCell>
                <mxCell id="R1y9XJ3Q8lprdGOqnd8L-31" value="" style="edgeStyle=none;html=1;endArrow=none;verticalAlign=bottom;rounded=0;entryX=0;entryY=0.5;entryDx=0;entryDy=0;" parent="1" source="R1y9XJ3Q8lprdGOqnd8L-10" target="R1y9XJ3Q8lprdGOqnd8L-29" edge="1">
                    <mxGeometry width="160" relative="1" as="geometry">
                        <mxPoint x="-40" y="450" as="sourcePoint"/>
                        <mxPoint x="120" y="450" as="targetPoint"/>
                    </mxGeometry>
                </mxCell>
                <mxCell id="R1y9XJ3Q8lprdGOqnd8L-32" value="&lt;span style=&quot;font-weight: normal;&quot;&gt;Add&lt;/span&gt;" style="shape=ellipse;html=1;strokeWidth=1;fontStyle=1;whiteSpace=wrap;align=center;perimeter=ellipsePerimeter;" parent="1" vertex="1">
                    <mxGeometry x="100" y="270" width="80" height="60" as="geometry"/>
                </mxCell>
                <mxCell id="R1y9XJ3Q8lprdGOqnd8L-33" value="&lt;div&gt;&lt;span style=&quot;font-weight: normal;&quot;&gt;Remove&lt;/span&gt;&lt;/div&gt;" style="shape=ellipse;html=1;strokeWidth=1;fontStyle=1;whiteSpace=wrap;align=center;perimeter=ellipsePerimeter;" parent="1" vertex="1">
                    <mxGeometry x="230" y="250" width="80" height="60" as="geometry"/>
                </mxCell>
                <mxCell id="R1y9XJ3Q8lprdGOqnd8L-34" value="&lt;span style=&quot;font-weight: normal;&quot;&gt;Update&lt;/span&gt;" style="shape=ellipse;html=1;strokeWidth=1;fontStyle=1;whiteSpace=wrap;align=center;perimeter=ellipsePerimeter;" parent="1" vertex="1">
                    <mxGeometry x="360" y="270" width="80" height="60" as="geometry"/>
                </mxCell>
                <mxCell id="R1y9XJ3Q8lprdGOqnd8L-35" value="" style="edgeStyle=none;html=1;endArrow=block;endFill=0;endSize=12;verticalAlign=bottom;rounded=0;entryX=0.7;entryY=0.033;entryDx=0;entryDy=0;entryPerimeter=0;exitX=0;exitY=1;exitDx=0;exitDy=0;" parent="1" source="R1y9XJ3Q8lprdGOqnd8L-34" target="R1y9XJ3Q8lprdGOqnd8L-29" edge="1">
                    <mxGeometry width="160" relative="1" as="geometry">
                        <mxPoint x="240" y="380" as="sourcePoint"/>
                        <mxPoint x="380" y="326" as="targetPoint"/>
                    </mxGeometry>
                </mxCell>
                <mxCell id="R1y9XJ3Q8lprdGOqnd8L-36" value="" style="edgeStyle=none;html=1;endArrow=block;endFill=0;endSize=12;verticalAlign=bottom;rounded=0;exitX=0.425;exitY=0.967;exitDx=0;exitDy=0;exitPerimeter=0;entryX=0.581;entryY=0.033;entryDx=0;entryDy=0;entryPerimeter=0;" parent="1" source="R1y9XJ3Q8lprdGOqnd8L-33" target="R1y9XJ3Q8lprdGOqnd8L-29" edge="1">
                    <mxGeometry width="160" relative="1" as="geometry">
                        <mxPoint x="210" y="380" as="sourcePoint"/>
                        <mxPoint x="232" y="383" as="targetPoint"/>
                    </mxGeometry>
                </mxCell>
                <mxCell id="R1y9XJ3Q8lprdGOqnd8L-37" value="" style="edgeStyle=none;html=1;endArrow=block;endFill=0;endSize=12;verticalAlign=bottom;rounded=0;entryX=0.5;entryY=0;entryDx=0;entryDy=0;" parent="1" source="R1y9XJ3Q8lprdGOqnd8L-32" target="R1y9XJ3Q8lprdGOqnd8L-29" edge="1">
                    <mxGeometry width="160" relative="1" as="geometry">
                        <mxPoint x="200" y="370" as="sourcePoint"/>
                        <mxPoint x="205" y="380" as="targetPoint"/>
                    </mxGeometry>
                </mxCell>
            </root>
        </mxGraphModel>
    </diagram>
</mxfile>